<svg width="61" height="12" viewBox="0 0 61 12" fill="none" xmlns="http://www.w3.org/2000/svg">
<path d="M5.97488 1.14262C6.04221 0.9606 6.29965 0.9606 6.36697 1.14262L7.45465 4.08312C7.48393 4.16229 7.55796 4.21608 7.64231 4.21947L10.775 4.34524C10.9689 4.35303 11.0485 4.59786 10.8962 4.71814L8.43569 6.66125C8.36945 6.71357 8.34117 6.80059 8.36401 6.88186L9.21245 9.9001C9.26497 10.0869 9.0567 10.2382 8.89524 10.1306L6.28691 8.39096C6.21668 8.34413 6.12517 8.34413 6.05495 8.39096L3.44661 10.1306C3.28516 10.2382 3.07689 10.0869 3.1294 9.9001L3.97784 6.88186C4.00069 6.80059 3.97241 6.71357 3.90616 6.66125L1.44568 4.71814C1.29338 4.59786 1.37294 4.35303 1.56685 4.34524L4.69955 4.21947C4.78389 4.21608 4.85792 4.16229 4.88721 4.08312L5.97488 1.14262Z" fill="#FFB400"/>
<path d="M18.0985 1.14262C18.1659 0.9606 18.4233 0.9606 18.4906 1.14262L19.5783 4.08312C19.6076 4.16229 19.6816 4.21608 19.766 4.21947L22.8987 4.34524C23.0926 4.35303 23.1721 4.59786 23.0198 4.71814L20.5594 6.66125C20.4931 6.71357 20.4648 6.80059 20.4877 6.88186L21.3361 9.9001C21.3886 10.0869 21.1804 10.2382 21.0189 10.1306L18.4106 8.39096C18.3403 8.34413 18.2488 8.34413 18.1786 8.39096L15.5703 10.1306C15.4088 10.2382 15.2005 10.0869 15.2531 9.9001L16.1015 6.88186C16.1243 6.80059 16.0961 6.71357 16.0298 6.66125L13.5693 4.71814C13.417 4.59786 13.4966 4.35303 13.6905 4.34524L16.8232 4.21947C16.9075 4.21608 16.9816 4.16229 17.0109 4.08312L18.0985 1.14262Z" fill="#FFB400"/>
<path d="M30.2221 1.14262C30.2894 0.9606 30.5468 0.9606 30.6142 1.14262L31.7018 4.08312C31.7311 4.16229 31.8052 4.21608 31.8895 4.21947L35.0222 4.34524C35.2161 4.35303 35.2957 4.59786 35.1434 4.71814L32.6829 6.66125C32.6166 6.71357 32.5884 6.80059 32.6112 6.88186L33.4596 9.9001C33.5122 10.0869 33.3039 10.2382 33.1424 10.1306L30.5341 8.39096C30.4639 8.34413 30.3724 8.34413 30.3021 8.39096L27.6938 10.1306C27.5324 10.2382 27.3241 10.0869 27.3766 9.9001L28.225 6.88186C28.2479 6.80059 28.2196 6.71357 28.1534 6.66125L25.6929 4.71814C25.5406 4.59786 25.6201 4.35303 25.814 4.34524L28.9467 4.21947C29.0311 4.21608 29.1051 4.16229 29.1344 4.08312L30.2221 1.14262Z" fill="#FFB400"/>
<path d="M42.3457 1.14262C42.4131 0.9606 42.6705 0.9606 42.7378 1.14262L43.8255 4.08312C43.8548 4.16229 43.9288 4.21608 44.0132 4.21947L47.1459 4.34524C47.3398 4.35303 47.4193 4.59786 47.267 4.71814L44.8065 6.66125C44.7403 6.71357 44.712 6.80059 44.7349 6.88186L45.5833 9.9001C45.6358 10.0869 45.4275 10.2382 45.2661 10.1306L42.6578 8.39096C42.5875 8.34413 42.496 8.34413 42.4258 8.39096L39.8175 10.1306C39.656 10.2382 39.4477 10.0869 39.5003 9.9001L40.3487 6.88186C40.3715 6.80059 40.3433 6.71357 40.277 6.66125L37.8165 4.71814C37.6642 4.59786 37.7438 4.35303 37.9377 4.34524L41.0704 4.21947C41.1547 4.21608 41.2288 4.16229 41.2581 4.08312L42.3457 1.14262Z" fill="#FFB400"/>
<path d="M54.4694 1.14262C54.5367 0.9606 54.7942 0.9606 54.8615 1.14262L55.9492 4.08312C55.9784 4.16229 56.0525 4.21608 56.1368 4.21947L59.2695 4.34524C59.4634 4.35303 59.543 4.59786 59.3907 4.71814L56.9302 6.66125C56.864 6.71357 56.8357 6.80059 56.8585 6.88186L57.707 9.9001C57.7595 10.0869 57.5512 10.2382 57.3898 10.1306L54.7814 8.39096C54.7112 8.34413 54.6197 8.34413 54.5495 8.39096L51.9411 10.1306C51.7797 10.2382 51.5714 10.0869 51.6239 9.9001L52.4723 6.88186C52.4952 6.80059 52.4669 6.71357 52.4007 6.66125L49.9402 4.71814C49.7879 4.59786 49.8674 4.35303 50.0614 4.34524L53.1941 4.21947C53.2784 4.21608 53.3524 4.16229 53.3817 4.08312L54.4694 1.14262Z" fill="#FFB400"/>
</svg>
